<?xml version="1.0" encoding="utf-8" standalone="yes"?>
<!DOCTYPE svg PUBLIC "-//W3C//DTD SVG 1.1//EN" "http://www.w3.org/Graphics/SVG/1.1/DTD/svg11.dtd">
<svg width="732" height="552" viewBox="0 0 732 552" style="fill:none;stroke:none;fill-rule:evenodd;clip-rule:evenodd;stroke-linecap:round;stroke-linejoin:round;stroke-miterlimit:1.5;" version="1.1" xmlns="http://www.w3.org/2000/svg" xmlns:xlink="http://www.w3.org/1999/xlink"><style id="fontImports">@import url("https://fonts.googleapis.com/css2?family=Roboto:wght@400;700&amp;display=block");</style><rect id="" x="0" y="0" width="732" height="552" style="fill: #2c2c2c;"></rect><g id="items" style="isolation: isolate"><g id="blend" style="mix-blend-mode:normal"><g id="g-root-3.cu_sy_4l2zow1ej8idd-fill" data-item-order="999898179" data-item-id="3.cu_sy_4l2zow1ej8idd" data-item-class="Part Indexed Fill Stroke" data-item-index="3" data-renderer-id="0" transform="translate(181.44479370117188, 64.44482421875)"><g id="3.cu_sy_4l2zow1ej8idd-fill" stroke="none" fill="#A8DD38"><g><path d="M 28.581604 53.211014C 10 85.395798 21.027099 126.549714 53.211395 145.131302L 101.505706 173.014008L 101.505706 117.514206L 77.243622 103.506409C 68.048004 98.197403 64.8974 86.439103 70.206512 77.243607C 75.515503 68.048005 87.273712 64.897019 96.469299 70.207016L 120.750213 84.225312L 120.735199 84.251999L 207.192199 134.168213L 255.256195 106.418305L 145.461212 43.028016L 145.476196 43.001008L 120.50119 28.582001C 88.317108 10 47.163208 21.027008 28.581604 53.211014Z"></path></g></g></g><g id="g-root-2.cu_sy_4l2zow1ej8idc-fill" data-item-order="999898181" data-item-id="2.cu_sy_4l2zow1ej8idc" data-item-class="Part Indexed Fill Stroke" data-item-index="2" data-renderer-id="0" transform="translate(282.32208251953125, 144.0899658203125)"><g id="2.cu_sy_4l2zow1ej8idc-fill" stroke="none" fill="#44E095"><g><path d="M 77.290008 232.910004C 114.453002 232.910004 144.580017 202.783203 144.580017 165.619995L 144.580017 109.855011L 96.515686 137.604523L 96.515686 165.619995C 96.515686 176.238098 87.907989 184.845703 77.290008 184.845703C 66.671905 184.845703 58.0643 176.238098 58.0643 165.619995L 58.0643 137.582489L 58.095092 137.582489L 58.095214 37.75L 10.030914 10L 10.030914 136.781494L 10 136.781494L 10 165.619995C 10 202.783295 40.1268 232.910004 77.290008 232.910004Z"></path></g></g></g><g id="g-root-1.cu_sy_90whtc1ej8hl3-fill" data-item-order="999898183" data-item-id="1.cu_sy_90whtc1ej8hl3" data-item-class="Part Indexed Indexed_1 Fill Stroke" data-item-index="1" data-renderer-id="0" transform="translate(339.9954833984375, 64.4447021484375)"><g id="1.cu_sy_90whtc1ej8hl3-fill" stroke="none" fill="#1AC6FF"><g><path d="M 169.415985 53.211395C 150.834015 21.027404 109.680389 10.000396 77.496094 28.581405L 29.201813 56.464401L 77.266083 84.214401L 101.52829 70.206405C 110.723999 64.8974 122.481995 68.048401 127.790985 77.243393C 133.100006 86.439392 129.949982 98.197387 120.753998 103.506408L 96.472809 117.52539L 96.457397 117.498397L 10 167.414596L 10 222.914398L 119.79599 159.523803L 119.811005 159.550598L 144.78598 145.131302C 176.970001 126.549698 187.998016 85.395401 169.415985 53.211395Z"></path></g></g></g><g id="g-root-tx_understa_qrk1801ej8idk-fill" data-item-order="1000000000" data-item-id="tx_understa_qrk1801ej8idk" data-item-class="Label Stroke Title" data-item-index="none" data-renderer-id="0" transform="translate(188, 2)"><g id="tx_understa_qrk1801ej8idk-fill" stroke="none" fill="#FFFFFF"><g><text style="font: 20px Roboto, sans-serif; white-space: pre;" font-weight="20px" font-size="Roboto," font-family="sans-serif"><tspan x="12.73" y="33.5" dominant-baseline="ideographic">Understanding IDE Plugin Registries</tspan></text></g></g></g><g id="g-root-tx_embedded_dgpzxs1ej8gss-fill" data-item-order="1000000000" data-item-id="tx_embedded_dgpzxs1ej8gss" data-item-class="Label Stroke Indexed" data-item-index="3" data-renderer-id="0" transform="translate(2, 74)"><g id="tx_embedded_dgpzxs1ej8gss-fill" stroke="none" fill="#FFFFFF"><g><text style="font: bold 20px Roboto, sans-serif; white-space: pre;" font-weight="bold" font-size="20" font-family="Roboto, sans-serif"><tspan x="16.68" y="33.5" dominant-baseline="ideographic">Embedded Open </tspan><tspan x="46.09" y="57.5" dominant-baseline="ideographic">VSX Registry</tspan></text></g></g></g><g id="g-root-tx_visualst_90whtc1ej8hl2-fill" data-item-order="1000000000" data-item-id="tx_visualst_90whtc1ej8hl2" data-item-class="Label Stroke Indexed Indexed_1" data-item-index="1" data-renderer-id="0" transform="translate(542, 74)"><g id="tx_visualst_90whtc1ej8hl2-fill" stroke="none" fill="#FFFFFF"><g><text style="font: bold 20px Roboto, sans-serif; white-space: pre;" font-weight="bold" font-size="20" font-family="Roboto, sans-serif"><tspan x="12" y="33.5" dominant-baseline="ideographic">Visual Studio </tspan><tspan x="12" y="57.5" dominant-baseline="ideographic">Marketplace</tspan></text></g></g></g><g id="g-root-tx_acustomi_qrk1801ej8idl-fill" data-item-order="1000000000" data-item-id="tx_acustomi_qrk1801ej8idl" data-item-class="Label Stroke Indexed" data-item-index="3" data-renderer-id="0" transform="translate(2, 146)"><g id="tx_acustomi_qrk1801ej8idl-fill" stroke="none" fill="#FFFFFF"><g><text style="font: 20px Roboto, sans-serif; white-space: pre;" font-weight="20px" font-size="Roboto," font-family="sans-serif"><tspan x="22.68" y="33.5" dominant-baseline="ideographic">A customizable, </tspan><tspan x="33.4" y="57.5" dominant-baseline="ideographic">offline-capable </tspan><tspan x="97.49" y="81.5" dominant-baseline="ideographic">registry</tspan></text></g></g></g><g id="g-root-tx_aproprie_mbqj3k1ej8j5v-fill" data-item-order="1000000000" data-item-id="tx_aproprie_mbqj3k1ej8j5v" data-item-class="Label Stroke Indexed Indexed_1" data-item-index="1" data-renderer-id="0" transform="translate(542, 146)"><g id="tx_aproprie_mbqj3k1ej8j5v-fill" stroke="none" fill="#FFFFFF"><g><text style="font: 20px Roboto, sans-serif; white-space: pre;" font-weight="20px" font-size="Roboto," font-family="sans-serif"><tspan x="12" y="33.5" dominant-baseline="ideographic">A proprietary </tspan><tspan x="12" y="57.5" dominant-baseline="ideographic">registry with </tspan><tspan x="12" y="81.5" dominant-baseline="ideographic">extensive plugins</tspan></text></g></g></g><g id="g-root-tx_openvsxr_dgpzxs1ej8gst-fill" data-item-order="1000000000" data-item-id="tx_openvsxr_dgpzxs1ej8gst" data-item-class="Label Stroke Indexed" data-item-index="2" data-renderer-id="0" transform="translate(296, 398)"><g id="tx_openvsxr_dgpzxs1ej8gst-fill" stroke="none" fill="#FFFFFF"><g><text style="font: bold 20px Roboto, sans-serif; white-space: pre;" font-weight="bold" font-size="20" font-family="Roboto, sans-serif"><tspan x="16.44" y="33.5" dominant-baseline="ideographic">Open VSX </tspan><tspan x="24.09" y="57.5" dominant-baseline="ideographic">Registry</tspan></text></g></g></g><g id="g-root-tx_anopenso_mbqj3k1ej8j5u-fill" data-item-order="1000000000" data-item-id="tx_anopenso_mbqj3k1ej8j5u" data-item-class="Label Stroke Indexed" data-item-index="2" data-renderer-id="0" transform="translate(266, 458)"><g id="tx_anopenso_mbqj3k1ej8j5u-fill" stroke="none" fill="#FFFFFF"><g><text style="font: 20px Roboto, sans-serif; white-space: pre;" font-weight="20px" font-size="Roboto," font-family="sans-serif"><tspan x="21.93" y="33.5" dominant-baseline="ideographic">An open-source </tspan><tspan x="15.18" y="57.5" dominant-baseline="ideographic">alternative for VS </tspan><tspan x="17.61" y="81.5" dominant-baseline="ideographic">Code extensions</tspan></text></g></g></g><g id="g-root-3.cu_sy_4l2zow1ej8idd-stroke" data-item-order="999898179" data-item-id="3.cu_sy_4l2zow1ej8idd" data-item-class="Part Indexed Fill Stroke" data-item-index="3" data-renderer-id="0" transform="translate(181.44479370117188, 64.44482421875)"><g id="3.cu_sy_4l2zow1ej8idd-stroke" fill="none" stroke-linecap="round" stroke-linejoin="round" stroke-miterlimit="4" stroke="#FFFFFF" stroke-width="2"><g><path d="M 28.581604 53.211503C 10 85.395798 21.027099 126.549714 53.211395 145.131302L 101.505706 173.014008L 101.505706 117.514206L 77.243622 103.506409C 68.048004 98.197403 64.8974 86.439103 70.206512 77.243607C 75.515503 68.048111 87.273712 64.897507 96.469299 70.206498L 120.750396 84.225312L 120.735016 84.251999L 207.192413 134.168213L 255.256622 106.418305L 145.460907 43.02771L 145.476288 43.000901L 120.501404 28.581604C 88.317108 10 47.163208 21.027207 28.581604 53.211503Z"></path></g></g></g><g id="g-root-2.cu_sy_4l2zow1ej8idc-stroke" data-item-order="999898181" data-item-id="2.cu_sy_4l2zow1ej8idc" data-item-class="Part Indexed Fill Stroke" data-item-index="2" data-renderer-id="0" transform="translate(282.32208251953125, 144.0899658203125)"><g id="2.cu_sy_4l2zow1ej8idc-stroke" fill="none" stroke-linecap="round" stroke-linejoin="round" stroke-miterlimit="4" stroke="#FFFFFF" stroke-width="2"><g><path d="M 77.290008 232.910004C 114.453186 232.910004 144.579895 202.783203 144.579895 165.619995L 144.579895 109.854615L 96.515686 137.604523L 96.515686 165.619995C 96.515686 176.238098 87.907989 184.845703 77.290008 184.845703C 66.671905 184.845703 58.0643 176.238098 58.0643 165.619995L 58.0643 137.582489L 58.095214 137.582489L 58.095214 37.750199L 10.030914 10.000305L 10.030914 136.781494L 10 136.781494L 10 165.619995C 10 202.783295 40.1268 232.910004 77.290008 232.910004Z"></path></g></g></g><g id="g-root-1.cu_sy_90whtc1ej8hl3-stroke" data-item-order="999898183" data-item-id="1.cu_sy_90whtc1ej8hl3" data-item-class="Part Indexed Indexed_1 Fill Stroke" data-item-index="1" data-renderer-id="0" transform="translate(339.9954833984375, 64.4447021484375)"><g id="1.cu_sy_90whtc1ej8hl3-stroke" fill="none" stroke-linecap="round" stroke-linejoin="round" stroke-miterlimit="4" stroke="#FFFFFF" stroke-width="2"><g><path d="M 169.415985 53.211502C 150.83432 21.027191 109.680389 10 77.496094 28.581604L 29.201813 56.464401L 77.266083 84.214294L 101.52829 70.206497C 110.723785 64.897491 122.482086 68.048095 127.791107 77.243591C 133.100098 86.439102 129.949493 98.197387 120.753998 103.506408L 96.472809 117.525207L 96.457397 117.498397L 10 167.414596L 10 222.914398L 119.795807 159.523803L 119.811188 159.550598L 144.786102 145.131302C 176.970428 126.549698 187.997589 85.395797 169.415985 53.211502Z"></path></g></g></g><g id="g-root-tx_understa_qrk1801ej8idk-stroke" data-item-order="1000000000" data-item-id="tx_understa_qrk1801ej8idk" data-item-class="Label Stroke Title" data-item-index="none" data-renderer-id="0" transform="translate(188, 2)"></g><g id="g-root-tx_embedded_dgpzxs1ej8gss-stroke" data-item-order="1000000000" data-item-id="tx_embedded_dgpzxs1ej8gss" data-item-class="Label Stroke Indexed" data-item-index="3" data-renderer-id="0" transform="translate(2, 74)"></g><g id="g-root-tx_visualst_90whtc1ej8hl2-stroke" data-item-order="1000000000" data-item-id="tx_visualst_90whtc1ej8hl2" data-item-class="Label Stroke Indexed Indexed_1" data-item-index="1" data-renderer-id="0" transform="translate(542, 74)"></g><g id="g-root-tx_acustomi_qrk1801ej8idl-stroke" data-item-order="1000000000" data-item-id="tx_acustomi_qrk1801ej8idl" data-item-class="Label Stroke Indexed" data-item-index="3" data-renderer-id="0" transform="translate(2, 146)"></g><g id="g-root-tx_aproprie_mbqj3k1ej8j5v-stroke" data-item-order="1000000000" data-item-id="tx_aproprie_mbqj3k1ej8j5v" data-item-class="Label Stroke Indexed Indexed_1" data-item-index="1" data-renderer-id="0" transform="translate(542, 146)"></g><g id="g-root-tx_openvsxr_dgpzxs1ej8gst-stroke" data-item-order="1000000000" data-item-id="tx_openvsxr_dgpzxs1ej8gst" data-item-class="Label Stroke Indexed" data-item-index="2" data-renderer-id="0" transform="translate(296, 398)"></g><g id="g-root-tx_anopenso_mbqj3k1ej8j5u-stroke" data-item-order="1000000000" data-item-id="tx_anopenso_mbqj3k1ej8j5u" data-item-class="Label Stroke Indexed" data-item-index="2" data-renderer-id="0" transform="translate(266, 458)"></g></g></g></svg>